<svg version="1.1" id="Layer_1" xmlns="http://www.w3.org/2000/svg" xmlns:xlink="http://www.w3.org/1999/xlink" x="0px" y="0px"
	 width="100%" viewBox="0 0 569 188" enable-background="new 0 0 569 188" xml:space="preserve">
<path fill="#FEFEFD" opacity="1.000000" stroke="none" 
	d="
M411.000000,189.000000 
	C274.000000,189.000000 137.500000,189.000000 1.000000,189.000000 
	C1.000000,126.333336 1.000000,63.666668 1.000000,1.000000 
	C190.666672,1.000000 380.333344,1.000000 570.000000,1.000000 
	C570.000000,63.666668 570.000000,126.333336 570.000000,189.000000 
	C517.166687,189.000000 464.333344,189.000000 411.000000,189.000000 
M219.990204,122.004936 
	C219.990204,122.004936 219.949738,121.959816 220.556381,121.910439 
	C220.618607,121.260628 220.680847,120.610825 220.762192,119.103844 
	C220.978134,117.403374 221.194092,115.702896 221.825607,113.380898 
	C222.124893,110.133980 223.899139,105.763115 222.443787,103.853264 
	C218.265594,98.370232 217.388351,91.624565 213.914352,85.255653 
	C210.931534,83.843971 207.948700,82.432289 204.299210,80.775154 
	C202.349899,78.967094 200.400589,77.159027 198.240463,75.155426 
	C198.404495,75.034348 197.671143,75.575676 196.476440,75.964691 
	C193.674591,74.821754 190.872742,73.678818 187.935928,72.480820 
	C187.489761,73.296791 186.425079,75.243950 185.076538,76.409409 
	C176.088760,70.491684 176.357712,70.804459 171.325134,75.131767 
	C166.486023,79.292725 164.459305,84.051804 166.077682,90.383148 
	C164.550598,89.980980 163.534500,89.713379 162.581924,89.462509 
	C162.381989,93.533379 162.199142,97.256569 161.985413,100.994881 
	C161.985413,100.994881 161.982468,101.028099 161.393738,101.300629 
	C161.248993,102.533638 161.104233,103.766647 160.673859,105.514847 
	C160.186737,106.358833 159.699600,107.202827 159.056335,108.641624 
	C159.020752,109.049210 158.985168,109.456795 158.403610,110.003258 
	C158.142807,110.255722 157.882004,110.508186 156.949448,110.888710 
	C155.019394,114.381523 150.918854,118.388062 151.599319,121.263008 
	C153.140533,127.774658 156.041794,134.395889 163.197617,137.545013 
	C165.311722,138.475372 167.040100,140.282288 169.432159,141.879883 
	C169.598618,141.927795 169.765091,141.975708 170.099838,142.680984 
	C171.025192,143.156204 171.950531,143.631424 173.164536,144.730911 
	C174.443893,145.198700 175.723267,145.666489 177.162506,146.454086 
	C177.441345,146.370789 177.720169,146.287476 178.742706,146.131638 
	C179.488663,146.176392 180.234604,146.221146 181.215088,147.001648 
	C184.923508,148.076233 188.666473,149.575943 192.833191,146.059738 
	C194.206314,146.026871 195.579453,145.994019 197.581329,146.108719 
	C198.153702,145.858078 198.726074,145.607437 199.841904,145.303726 
	C200.358963,145.149323 200.876007,144.994919 202.176163,144.812744 
	C204.385483,143.544586 206.594788,142.276428 209.279083,140.559830 
	C209.511337,139.724503 209.743576,138.889191 210.391968,137.636047 
	C210.622437,137.097992 210.852890,136.559952 211.623459,136.179153 
	C212.831635,135.469482 214.039795,134.759796 215.665756,133.699997 
	C215.809311,133.183746 215.952881,132.667496 216.051575,131.569397 
	C216.027740,131.376343 216.003891,131.183289 216.471771,130.624924 
	C216.312241,129.755798 216.152710,128.886688 216.023087,127.360596 
	C216.068069,126.924561 216.113037,126.488533 216.798218,125.898933 
	C217.197006,124.938431 217.595779,123.977928 218.388611,122.896957 
	C218.388611,122.896957 218.800034,122.873871 219.337799,122.794632 
	C219.546768,122.513580 219.755722,122.232521 219.990204,122.004936 
M283.694855,42.565609 
	C278.116486,43.761547 271.934204,43.805725 267.066925,46.357822 
	C248.491379,56.097649 235.380692,83.244720 238.329300,104.077606 
	C240.073792,116.403008 250.410339,123.207191 262.360382,119.774773 
	C271.195282,117.237122 277.027924,111.293266 279.924164,102.758492 
	C280.897888,99.889168 282.126831,98.561836 284.976776,97.661705 
	C290.809448,95.819504 293.349121,91.012833 291.767090,86.162659 
	C285.826935,86.162659 279.935547,86.300385 274.053986,86.118629 
	C269.435730,85.975906 266.519012,87.855606 264.886047,92.556892 
	C266.435455,93.250549 268.071930,93.543159 269.017731,94.510803 
	C270.399597,95.924622 272.085938,97.753830 272.239288,99.527313 
	C272.791382,105.912193 266.049530,113.020630 259.620026,113.393135 
	C253.536011,113.745628 249.765182,109.301277 249.356125,101.267174 
	C249.305389,100.270683 249.295059,99.264412 249.369553,98.270424 
	C250.601410,81.833397 257.043427,67.680420 268.545105,55.969269 
	C271.024109,53.445110 274.395844,51.449585 277.729858,50.239700 
	C279.835602,49.475533 283.641174,49.751198 284.846680,51.147251 
	C286.122131,52.624352 286.193390,56.587494 285.070435,58.397465 
	C282.491852,62.553448 279.166382,66.380127 275.578247,69.735321 
	C272.421234,72.687370 273.137329,74.820786 275.779968,77.150215 
	C278.463440,79.515671 281.398865,79.134422 284.027435,77.160805 
	C291.137543,71.822197 295.181335,64.748840 294.540985,55.720390 
	C294.093140,49.405769 290.801300,44.783234 283.694855,42.565609 
M84.458961,112.278770 
	C80.935303,110.787392 77.347816,107.926514 73.901161,108.087151 
	C66.521568,108.431091 59.219921,110.368660 51.871254,111.560463 
	C51.003757,111.701157 50.041847,111.259666 49.245045,111.110725 
	C51.625912,107.253365 54.145054,104.057289 55.723274,100.449593 
	C60.524094,89.475319 64.846832,78.292557 69.595688,67.294594 
	C71.564713,62.734512 73.861465,58.257320 76.536377,54.080025 
	C78.520058,50.982208 81.583511,47.870342 85.636742,50.004818 
	C89.856094,52.226772 88.865265,56.787670 86.923813,59.684074 
	C83.655922,64.559364 79.525261,68.921844 75.366333,73.111748 
	C72.508858,75.990517 72.245041,78.264473 75.521835,80.713898 
	C78.348938,82.827156 81.663094,82.839287 83.723282,80.420036 
	C87.748077,75.693794 91.985931,70.790398 94.502937,65.222328 
	C98.332420,56.750835 95.423065,47.814014 88.979683,43.888805 
	C83.299194,40.428337 74.723076,42.044128 68.912148,49.104145 
	C64.222321,54.802082 60.213379,61.332859 57.202248,68.074730 
	C52.937885,77.622543 50.132206,87.811592 46.178150,97.512611 
	C44.205399,102.352631 40.946747,106.655380 38.527298,111.334335 
	C37.784897,112.770058 37.293224,114.830017 37.734432,116.286812 
	C38.878223,120.063416 41.674763,121.070641 45.603680,120.321045 
	C57.963810,117.962837 70.353775,114.188927 82.823456,120.159767 
	C83.367752,120.420395 85.621117,118.733353 85.818764,117.710228 
	C86.103935,116.234024 85.234726,114.534828 84.458961,112.278770 
M371.933929,110.437721 
	C374.134277,107.782372 376.334656,105.127022 378.535004,102.471672 
	C378.938568,108.672508 374.951508,115.388847 381.818481,119.241806 
	C384.369202,120.672989 388.884369,119.757912 392.040924,118.624245 
	C395.095306,117.527260 397.039734,114.528069 396.298126,110.468102 
	C395.337616,110.528923 394.690186,110.485390 394.083099,110.621567 
	C388.646759,111.840889 387.208649,110.743614 388.187988,105.381874 
	C388.840637,101.808937 389.998322,98.270470 391.379272,94.900711 
	C394.030823,88.430527 396.955872,82.070267 399.863708,75.708397 
	C400.964447,73.300095 402.101868,71.039818 398.925659,69.341011 
	C395.837341,67.689201 393.114319,67.869347 391.213623,71.134026 
	C387.777344,77.036392 384.712524,83.179970 380.937958,88.853867 
	C376.618896,95.346260 371.893890,101.601448 366.911163,107.599083 
	C365.457031,109.349411 362.519775,109.867569 360.262329,110.950508 
	C360.537354,108.467468 360.334686,105.808601 361.172363,103.532669 
	C364.332031,94.948067 367.953461,86.533928 371.144440,77.960106 
	C372.546356,74.193199 372.139282,70.620483 367.733704,68.828957 
	C363.759644,67.212914 359.678406,68.705467 357.042145,72.846596 
	C361.145447,75.585114 360.128845,79.262512 358.598236,82.967438 
	C357.008362,86.815811 355.248688,90.596260 353.736633,94.474014 
	C351.925140,99.119843 349.997711,103.755020 348.681641,108.548874 
	C347.569031,112.601555 348.231537,116.629227 352.128906,119.207077 
	C356.009186,121.773666 359.924591,120.802071 363.325897,118.309395 
	C366.256866,116.161407 368.772736,113.447029 371.933929,110.437721 
M341.788696,79.850830 
	C338.328857,69.927040 331.683167,66.413902 321.576691,69.166107 
	C306.239044,73.342857 293.961121,95.015625 298.314453,110.228134 
	C300.071106,116.366623 304.709503,120.565186 311.505859,120.387505 
	C315.959198,120.271088 320.823547,119.044037 324.701233,116.877785 
	C336.606415,110.227058 343.874298,94.219528 341.788696,79.850830 
M465.326813,69.710175 
	C451.687744,76.250572 444.227722,87.249619 442.719940,102.108437 
	C441.779358,111.377304 446.349304,118.123772 454.416138,120.001785 
	C461.697998,121.697044 468.742432,120.469551 474.954071,116.274094 
	C476.687805,115.103096 477.845612,112.784607 478.709015,110.754898 
	C479.091644,109.855392 478.418365,107.952415 477.593475,107.286484 
	C477.033966,106.834785 475.292847,107.568001 474.225372,108.076286 
	C470.946564,109.637566 467.897339,111.906883 464.469086,112.882393 
	C456.838318,115.053680 452.792053,110.766617 454.520233,102.564590 
	C456.903229,102.245224 459.571014,102.402473 461.800293,101.489281 
	C467.720917,99.063980 474.079407,97.015465 479.100586,93.261353 
	C485.403412,88.548996 486.405884,79.864357 482.940796,73.823135 
	C479.995117,68.687477 474.484497,67.250267 465.326813,69.710175 
M130.218445,114.553345 
	C130.377304,112.126785 130.536148,109.700233 130.694992,107.273674 
	C128.867432,108.049423 127.076500,108.931053 125.204643,109.578835 
	C121.333191,110.918610 117.492569,112.769012 113.502403,113.233345 
	C108.918076,113.766823 107.418846,110.065033 106.834084,106.120605 
	C106.122787,101.322693 109.933136,102.273842 112.403442,101.948235 
	C120.022133,100.944008 127.065102,98.643578 132.605194,93.102509 
	C138.286743,87.419968 139.367172,78.742401 135.392624,72.973663 
	C131.857040,67.842056 124.338425,66.467628 116.805756,70.460831 
	C103.564674,77.480141 96.293083,88.783791 95.629982,103.764221 
	C95.215675,113.124214 101.218063,119.820404 109.990936,120.518326 
	C117.120743,121.085533 123.950188,119.863747 130.218445,114.553345 
M426.503235,119.138458 
	C434.278687,114.714256 436.514465,111.246216 434.331390,106.368195 
	C432.216217,107.683029 430.283447,109.404961 428.029175,110.137703 
	C425.825317,110.854050 423.003845,111.254707 421.024353,110.427635 
	C419.989624,109.995316 419.528503,106.483315 419.938446,104.609444 
	C421.357880,98.120956 423.425110,91.776924 424.957092,85.309532 
	C426.496521,78.810883 429.093292,73.874260 437.022003,74.771019 
	C437.953430,74.876358 439.148956,74.606499 439.887939,74.059341 
	C441.604889,72.788071 443.117645,71.241005 444.713165,69.805717 
	C444.411285,69.244644 444.109406,68.683578 443.807495,68.122505 
	C440.138428,68.122505 436.469330,68.122505 432.182892,68.122505 
	C433.235962,65.939438 433.797424,64.584755 434.518738,63.321335 
	C435.862640,60.967434 436.800415,58.533115 433.874969,56.836098 
	C431.127838,55.242531 428.374329,55.551987 426.423767,58.382355 
	C425.009399,60.434658 424.008301,62.821590 422.369629,64.653969 
	C421.012482,66.171585 419.008575,67.120598 417.262299,68.277885 
	C415.437286,69.487373 413.577667,70.644730 411.733185,71.824852 
	C413.309357,72.943527 414.893280,74.051559 416.453705,75.191788 
	C416.701874,75.373123 416.844299,75.699150 417.239624,76.234612 
	C416.713623,77.931831 416.017426,79.791840 415.563599,81.709221 
	C413.573914,90.115448 410.932770,98.450089 409.890778,106.977226 
	C408.567230,117.809280 415.323090,122.680222 426.503235,119.138458 
M529.640991,81.840492 
	C532.731201,76.525421 532.743347,72.105370 529.674622,69.595650 
	C526.559814,67.048218 522.610474,68.152252 517.991089,72.892647 
	C517.179932,73.725006 516.435608,74.623718 515.679932,75.508461 
	C513.755310,77.761932 511.841644,80.024803 509.923584,82.283913 
	C509.189850,79.871880 509.622772,78.031380 509.879974,76.166634 
	C510.335754,72.861855 509.447083,69.631126 506.014221,69.088524 
	C503.213440,68.645844 500.107452,69.781670 497.225311,70.549744 
	C496.739166,70.679314 496.148621,73.055702 496.541595,73.441750 
	C500.939087,77.761246 498.740112,82.603638 497.395264,87.012878 
	C494.730225,95.750633 491.500397,104.317787 488.436218,112.931328 
	C487.112457,116.652405 489.056458,118.544289 492.059204,119.975487 
	C495.419037,121.576843 496.997925,119.728752 498.075043,116.895248 
	C498.725037,115.185333 499.350555,113.466034 500.009399,111.759575 
	C503.992462,101.443268 509.109985,91.792046 516.593445,83.531960 
	C518.960876,80.918839 521.364868,79.559982 524.768188,82.227554 
	C525.682556,82.944237 527.636719,82.334373 529.640991,81.840492 
M387.329315,46.846649 
	C382.138489,50.422577 376.900360,53.932926 371.791046,57.621750 
	C370.554626,58.514416 369.743652,59.996334 368.737030,61.207283 
	C370.476501,61.896851 372.440765,63.463997 373.907318,63.088268 
	C376.720947,62.367413 379.354309,60.707584 381.872986,59.134064 
	C384.635590,57.408150 387.184357,55.340008 390.098816,53.223080 
	C391.102295,55.647095 391.783722,57.660114 392.743591,59.530209 
	C394.392029,62.741833 397.161865,64.157867 400.603241,63.060974 
	C401.504639,62.773666 402.577942,60.601425 402.339600,59.583500 
	C401.322815,55.241158 399.824768,51.012760 398.539001,46.731777 
	C397.134888,42.056580 393.742279,41.096939 390.100739,44.373112 
	C389.358826,45.040619 388.615967,45.707035 387.329315,46.846649 
z"/>
<path fill="#7B5737" opacity="1.000000" stroke="none" 
	d="
M284.076172,42.687508 
	C290.801300,44.783234 294.093140,49.405769 294.540985,55.720390 
	C295.181335,64.748840 291.137543,71.822197 284.027435,77.160805 
	C281.398865,79.134422 278.463440,79.515671 275.779968,77.150215 
	C273.137329,74.820786 272.421234,72.687370 275.578247,69.735321 
	C279.166382,66.380127 282.491852,62.553448 285.070435,58.397465 
	C286.193390,56.587494 286.122131,52.624352 284.846680,51.147251 
	C283.641174,49.751198 279.835602,49.475533 277.729858,50.239700 
	C274.395844,51.449585 271.024109,53.445110 268.545105,55.969269 
	C257.043427,67.680420 250.601410,81.833397 249.369553,98.270424 
	C249.295059,99.264412 249.305389,100.270683 249.356125,101.267174 
	C249.765182,109.301277 253.536011,113.745628 259.620026,113.393135 
	C266.049530,113.020630 272.791382,105.912193 272.239288,99.527313 
	C272.085938,97.753830 270.399597,95.924622 269.017731,94.510803 
	C268.071930,93.543159 266.435455,93.250549 264.886047,92.556892 
	C266.519012,87.855606 269.435730,85.975906 274.053986,86.118629 
	C279.935547,86.300385 285.826935,86.162659 291.767090,86.162659 
	C293.349121,91.012833 290.809448,95.819504 284.976776,97.661705 
	C282.126831,98.561836 280.897888,99.889168 279.924164,102.758492 
	C277.027924,111.293266 271.195282,117.237122 262.360382,119.774773 
	C250.410339,123.207191 240.073792,116.403008 238.329300,104.077606 
	C235.380692,83.244720 248.491379,56.097649 267.066925,46.357822 
	C271.934204,43.805725 278.116486,43.761547 284.076172,42.687508 
z"/>
<path fill="#7A5637" opacity="1.000000" stroke="none" 
	d="
M84.658524,112.604774 
	C85.234726,114.534828 86.103935,116.234024 85.818764,117.710228 
	C85.621117,118.733353 83.367752,120.420395 82.823456,120.159767 
	C70.353775,114.188927 57.963810,117.962837 45.603680,120.321045 
	C41.674763,121.070641 38.878223,120.063416 37.734432,116.286812 
	C37.293224,114.830017 37.784897,112.770058 38.527298,111.334335 
	C40.946747,106.655380 44.205399,102.352631 46.178150,97.512611 
	C50.132206,87.811592 52.937885,77.622543 57.202248,68.074730 
	C60.213379,61.332859 64.222321,54.802082 68.912148,49.104145 
	C74.723076,42.044128 83.299194,40.428337 88.979683,43.888805 
	C95.423065,47.814014 98.332420,56.750835 94.502937,65.222328 
	C91.985931,70.790398 87.748077,75.693794 83.723282,80.420036 
	C81.663094,82.839287 78.348938,82.827156 75.521835,80.713898 
	C72.245041,78.264473 72.508858,75.990517 75.366333,73.111748 
	C79.525261,68.921844 83.655922,64.559364 86.923813,59.684074 
	C88.865265,56.787670 89.856094,52.226772 85.636742,50.004818 
	C81.583511,47.870342 78.520058,50.982208 76.536377,54.080025 
	C73.861465,58.257320 71.564713,62.734512 69.595688,67.294594 
	C64.846832,78.292557 60.524094,89.475319 55.723274,100.449593 
	C54.145054,104.057289 51.625912,107.253365 49.245045,111.110725 
	C50.041847,111.259666 51.003757,111.701157 51.871254,111.560463 
	C59.219921,110.368660 66.521568,108.431091 73.901161,108.087151 
	C77.347816,107.926514 80.935303,110.787392 84.658524,112.604774 
z"/>
<path fill="#7B5737" opacity="1.000000" stroke="none" 
	d="
M371.703003,110.710388 
	C368.772736,113.447029 366.256866,116.161407 363.325897,118.309395 
	C359.924591,120.802071 356.009186,121.773666 352.128906,119.207077 
	C348.231537,116.629227 347.569031,112.601555 348.681641,108.548874 
	C349.997711,103.755020 351.925140,99.119843 353.736633,94.474014 
	C355.248688,90.596260 357.008362,86.815811 358.598236,82.967438 
	C360.128845,79.262512 361.145447,75.585114 357.042145,72.846596 
	C359.678406,68.705467 363.759644,67.212914 367.733704,68.828957 
	C372.139282,70.620483 372.546356,74.193199 371.144440,77.960106 
	C367.953461,86.533928 364.332031,94.948067 361.172363,103.532669 
	C360.334686,105.808601 360.537354,108.467468 360.262329,110.950516 
	C362.519775,109.867569 365.457031,109.349411 366.911163,107.599083 
	C371.893890,101.601448 376.618896,95.346260 380.937958,88.853867 
	C384.712524,83.179970 387.777344,77.036392 391.213623,71.134026 
	C393.114319,67.869347 395.837341,67.689201 398.925659,69.341011 
	C402.101868,71.039818 400.964447,73.300095 399.863708,75.708397 
	C396.955872,82.070267 394.030823,88.430527 391.379272,94.900711 
	C389.998322,98.270470 388.840637,101.808937 388.187988,105.381874 
	C387.208649,110.743614 388.646759,111.840889 394.083099,110.621567 
	C394.690186,110.485390 395.337616,110.528923 396.298126,110.468102 
	C397.039734,114.528069 395.095306,117.527260 392.040924,118.624245 
	C388.884369,119.757912 384.369202,120.672989 381.818481,119.241806 
	C374.951508,115.388847 378.938568,108.672508 378.535004,102.471672 
	C376.334656,105.127022 374.134277,107.782372 371.703003,110.710388 
M379.722473,101.614365 
	C379.570404,101.603699 379.418365,101.593040 379.266296,101.582375 
	C379.335815,101.679474 379.405304,101.776566 379.722473,101.614365 
z"/>
<path fill="#7B5637" opacity="1.000000" stroke="none" 
	d="
M341.865417,80.243721 
	C343.874298,94.219528 336.606415,110.227058 324.701233,116.877785 
	C320.823547,119.044037 315.959198,120.271088 311.505859,120.387505 
	C304.709503,120.565186 300.071106,116.366623 298.314453,110.228134 
	C293.961121,95.015625 306.239044,73.342857 321.576691,69.166107 
	C331.683167,66.413902 338.328857,69.927040 341.865417,80.243721 
M310.154358,95.840530 
	C309.490204,99.434425 308.247253,103.045380 308.352509,106.616592 
	C308.430908,109.276253 309.649139,113.369003 311.465942,114.109558 
	C313.388580,114.893250 317.377991,113.184166 319.150116,111.316574 
	C327.132416,102.904182 331.247833,92.638733 331.240570,81.000015 
	C331.239197,78.836029 329.904388,75.262985 328.465118,74.850166 
	C326.456909,74.274170 322.747253,75.322067 321.560974,76.968536 
	C317.426453,82.707008 314.064941,89.002441 310.154358,95.840530 
z"/>
<path fill="#7B5737" opacity="1.000000" stroke="none" 
	d="
M465.692383,69.565048 
	C474.484497,67.250267 479.995117,68.687477 482.940796,73.823135 
	C486.405884,79.864357 485.403412,88.548996 479.100586,93.261353 
	C474.079407,97.015465 467.720917,99.063980 461.800293,101.489281 
	C459.571014,102.402473 456.903229,102.245224 454.520233,102.564590 
	C452.792053,110.766617 456.838318,115.053680 464.469086,112.882393 
	C467.897339,111.906883 470.946564,109.637566 474.225372,108.076286 
	C475.292847,107.568001 477.033966,106.834785 477.593475,107.286484 
	C478.418365,107.952415 479.091644,109.855392 478.709015,110.754898 
	C477.845612,112.784607 476.687805,115.103096 474.954071,116.274094 
	C468.742432,120.469551 461.697998,121.697044 454.416138,120.001785 
	C446.349304,118.123772 441.779358,111.377304 442.719940,102.108437 
	C444.227722,87.249619 451.687744,76.250572 465.692383,69.565048 
M459.048218,86.667831 
	C457.718567,89.939621 456.388916,93.211403 454.952148,96.746696 
	C463.388428,96.508636 472.378387,90.363274 474.218170,83.435974 
	C474.807404,81.217422 473.667694,78.539711 473.319000,76.072083 
	C470.882721,76.522728 467.830811,76.220657 466.150177,77.595222 
	C463.426788,79.822670 461.603271,83.150314 459.048218,86.667831 
z"/>
<path fill="#7B5737" opacity="1.000000" stroke="none" 
	d="
M129.960938,114.822334 
	C123.950188,119.863747 117.120743,121.085533 109.990936,120.518326 
	C101.218063,119.820404 95.215675,113.124214 95.629982,103.764221 
	C96.293083,88.783791 103.564674,77.480141 116.805756,70.460831 
	C124.338425,66.467628 131.857040,67.842056 135.392624,72.973663 
	C139.367172,78.742401 138.286743,87.419968 132.605194,93.102509 
	C127.065102,98.643578 120.022133,100.944008 112.403442,101.948235 
	C109.933136,102.273842 106.122787,101.322693 106.834084,106.120605 
	C107.418846,110.065033 108.918076,113.766823 113.502403,113.233345 
	C117.492569,112.769012 121.333191,110.918610 125.204643,109.578835 
	C127.076500,108.931053 128.867432,108.049423 130.694992,107.273674 
	C130.536148,109.700233 130.377304,112.126785 129.960938,114.822334 
M116.936317,94.655022 
	C120.432518,90.840508 124.349457,87.307793 127.195908,83.058075 
	C128.187393,81.577805 126.534103,78.326065 126.088684,75.883362 
	C123.791199,76.353874 120.962494,76.133247 119.290894,77.418060 
	C113.038780,82.223534 110.457436,89.290947 107.685379,97.813080 
	C111.395668,96.592377 113.827927,95.792152 116.936317,94.655022 
z"/>
<path fill="#7B5738" opacity="1.000000" stroke="none" 
	d="
M426.152100,119.290024 
	C415.323090,122.680222 408.567230,117.809280 409.890778,106.977226 
	C410.932770,98.450089 413.573914,90.115448 415.563599,81.709221 
	C416.017426,79.791840 416.713623,77.931831 417.239624,76.234612 
	C416.844299,75.699150 416.701874,75.373123 416.453705,75.191788 
	C414.893280,74.051559 413.309357,72.943527 411.733185,71.824860 
	C413.577667,70.644730 415.437286,69.487373 417.262299,68.277885 
	C419.008575,67.120598 421.012482,66.171585 422.369629,64.653969 
	C424.008301,62.821590 425.009399,60.434658 426.423767,58.382355 
	C428.374329,55.551987 431.127838,55.242531 433.874969,56.836098 
	C436.800415,58.533115 435.862640,60.967434 434.518738,63.321335 
	C433.797424,64.584755 433.235962,65.939438 432.182892,68.122505 
	C436.469330,68.122505 440.138428,68.122505 443.807495,68.122505 
	C444.109406,68.683578 444.411285,69.244644 444.713165,69.805717 
	C443.117645,71.241005 441.604889,72.788071 439.887939,74.059341 
	C439.148956,74.606499 437.953430,74.876358 437.022003,74.771019 
	C429.093292,73.874260 426.496521,78.810883 424.957092,85.309532 
	C423.425110,91.776924 421.357880,98.120956 419.938446,104.609444 
	C419.528503,106.483315 419.989624,109.995316 421.024353,110.427635 
	C423.003845,111.254707 425.825317,110.854050 428.029175,110.137703 
	C430.283447,109.404961 432.216217,107.683029 434.331390,106.368195 
	C436.514465,111.246216 434.278687,114.714256 426.152100,119.290024 
z"/>
<path fill="#7C5839" opacity="1.000000" stroke="none" 
	d="
M529.377258,82.086975 
	C527.636719,82.334373 525.682556,82.944237 524.768188,82.227554 
	C521.364868,79.559982 518.960876,80.918839 516.593445,83.531960 
	C509.109985,91.792046 503.992462,101.443268 500.009399,111.759575 
	C499.350555,113.466034 498.725037,115.185333 498.075043,116.895248 
	C496.997925,119.728752 495.419037,121.576843 492.059204,119.975487 
	C489.056458,118.544289 487.112457,116.652405 488.436218,112.931328 
	C491.500397,104.317787 494.730225,95.750633 497.395264,87.012878 
	C498.740112,82.603638 500.939087,77.761246 496.541595,73.441750 
	C496.148621,73.055702 496.739166,70.679314 497.225311,70.549744 
	C500.107452,69.781670 503.213440,68.645844 506.014221,69.088524 
	C509.447083,69.631126 510.335754,72.861855 509.879974,76.166634 
	C509.622772,78.031380 509.189850,79.871880 509.923584,82.283913 
	C511.841644,80.024803 513.755310,77.761932 515.679932,75.508461 
	C516.435608,74.623718 517.179932,73.725006 517.991089,72.892647 
	C522.610474,68.152252 526.559814,67.048218 529.674622,69.595650 
	C532.743347,72.105370 532.731201,76.525421 529.377258,82.086975 
z"/>
<path fill="#7C5839" opacity="1.000000" stroke="none" 
	d="
M387.601440,46.610302 
	C388.615967,45.707035 389.358826,45.040619 390.100739,44.373112 
	C393.742279,41.096939 397.134888,42.056580 398.539001,46.731777 
	C399.824768,51.012760 401.322815,55.241158 402.339600,59.583500 
	C402.577942,60.601425 401.504639,62.773666 400.603241,63.060974 
	C397.161865,64.157867 394.392029,62.741833 392.743591,59.530209 
	C391.783722,57.660114 391.102295,55.647095 390.098816,53.223080 
	C387.184357,55.340008 384.635590,57.408150 381.872986,59.134064 
	C379.354309,60.707584 376.720947,62.367413 373.907318,63.088268 
	C372.440765,63.463997 370.476501,61.896851 368.737030,61.207287 
	C369.743652,59.996334 370.554626,58.514416 371.791046,57.621750 
	C376.900360,53.932926 382.138489,50.422577 387.601440,46.610302 
z"/>
<path fill="#E9843E" opacity="1.000000" stroke="none" 
	d="
M168.945251,141.687515 
	C167.040100,140.282288 165.311722,138.475372 163.197617,137.545013 
	C156.041794,134.395889 153.140533,127.774658 151.599319,121.263008 
	C150.918854,118.388062 155.019394,114.381523 157.420685,111.181847 
	C159.589447,113.600250 162.097626,115.478218 162.835281,117.896309 
	C165.221985,125.719925 166.958344,133.741943 168.945251,141.687515 
z"/>
<path fill="#F3E1A4" opacity="1.000000" stroke="none" 
	d="
M162.016296,100.979767 
	C162.199142,97.256569 162.381989,93.533379 162.581924,89.462509 
	C163.534500,89.713379 164.550598,89.980980 166.077682,90.383148 
	C164.459305,84.051804 166.486023,79.292725 171.325134,75.131767 
	C176.357712,70.804459 176.088760,70.491684 185.219070,76.983841 
	C185.214920,77.755188 185.093155,77.966469 184.686890,78.311790 
	C182.560562,80.341805 180.743652,82.252136 178.716980,83.966370 
	C178.035797,83.195808 177.564392,82.621338 176.744507,82.026222 
	C175.699982,81.996498 175.003952,81.987434 174.071899,81.784500 
	C173.545242,82.063850 173.254623,82.537086 172.984482,83.006699 
	C173.004959,83.003075 173.004669,82.961472 172.658112,82.860771 
	C172.163193,84.182343 172.014832,85.604622 171.850037,87.360619 
	C171.976776,88.103981 172.119949,88.513611 172.242325,89.143478 
	C172.221527,89.363716 172.273972,89.803024 171.968689,89.836945 
	C170.942017,90.909882 170.220612,91.948906 169.542450,93.227631 
	C169.585693,93.467331 169.528458,93.951096 169.231415,93.971420 
	C168.426514,94.267616 167.918671,94.543472 167.410828,94.819336 
	C167.959625,95.216988 168.508438,95.614639 169.182449,96.263306 
	C169.634155,96.687515 169.960663,96.860718 170.218109,97.286133 
	C169.885757,97.753716 169.622437,97.969078 168.962219,98.134293 
	C166.382324,99.049347 164.199310,100.014557 162.016296,100.979767 
z"/>
<path fill="#F2D896" opacity="1.000000" stroke="none" 
	d="
M162.000854,100.987320 
	C164.199310,100.014557 166.382324,99.049347 168.919800,98.440216 
	C171.865005,100.424568 174.455750,102.052849 177.418304,103.665520 
	C178.524567,103.571640 179.259033,103.493362 180.169876,103.740433 
	C181.254013,104.326241 182.161774,104.586700 183.291199,105.107063 
	C184.590347,105.740219 185.667831,106.113480 186.762543,106.821320 
	C188.184448,109.356705 189.589111,111.557495 190.672333,113.914474 
	C189.789902,115.047905 189.228928,116.025154 188.379425,116.992218 
	C187.659821,117.325142 187.228745,117.668259 186.583374,118.016815 
	C186.369049,118.022263 185.940460,118.034958 185.833649,118.069885 
	C185.726852,118.104813 185.536194,117.985847 185.642166,117.784843 
	C185.677246,117.215538 185.455490,117.054390 184.800781,117.035919 
	C184.327103,116.994278 184.135544,117.017120 183.769623,116.958153 
	C183.595276,116.876335 183.211121,116.848167 183.036133,116.579132 
	C182.294769,115.454079 181.728378,114.598061 181.130859,113.391006 
	C174.642548,107.699799 168.037094,103.009514 159.212479,108.046814 
	C159.699600,107.202827 160.186737,106.358833 160.864685,104.915161 
	C161.364502,103.219681 161.673492,102.123894 161.982468,101.028099 
	C161.982468,101.028099 161.985413,100.994881 162.000854,100.987320 
z"/>
<path fill="#F1E5D8" opacity="1.000000" stroke="none" 
	d="
M214.050156,85.945496 
	C217.388351,91.624565 218.265594,98.370232 222.443787,103.853264 
	C223.899139,105.763115 222.124893,110.133980 221.303497,113.642036 
	C220.573395,113.865288 220.365433,113.827400 220.135529,113.378845 
	C220.113571,110.724915 220.113571,108.481659 220.113571,105.529037 
	C215.572632,104.972710 210.862930,104.395706 206.186584,103.478699 
	C206.399780,102.048424 206.579636,100.958153 206.862732,99.561005 
	C207.689285,98.495918 208.412613,97.737686 209.530838,96.963249 
	C215.703888,95.989418 216.538071,93.959412 213.152512,89.168167 
	C212.677124,88.495377 212.333893,87.729202 212.204590,86.896294 
	C213.003159,86.506050 213.526657,86.225777 214.050156,85.945496 
M219.355316,102.687950 
	C216.580032,98.824371 213.354416,98.768959 209.689728,102.114059 
	C212.813766,102.502068 215.937820,102.890083 219.355316,102.687950 
z"/>
<path fill="#E2833B" opacity="1.000000" stroke="none" 
	d="
M159.134399,108.344223 
	C168.037094,103.009514 174.642548,107.699799 180.890472,113.614288 
	C180.448349,114.775490 180.215515,115.362373 179.746887,115.963577 
	C179.511124,115.977898 179.038773,115.990547 179.044983,115.618073 
	C176.219101,110.314545 173.346115,109.941368 168.621948,113.990082 
	C167.555466,114.410851 166.797302,114.772530 165.665192,115.084900 
	C163.177338,113.311859 161.063461,111.588120 158.949585,109.864380 
	C158.985168,109.456795 159.020752,109.049210 159.134399,108.344223 
z"/>
<path fill="#994B11" opacity="1.000000" stroke="none" 
	d="
M158.676590,109.933823 
	C161.063461,111.588120 163.177338,113.311859 165.655685,115.362152 
	C166.024246,116.059952 166.028336,116.431206 165.799973,117.072678 
	C167.373062,123.922226 169.178604,130.501556 171.021271,137.406128 
	C171.737122,138.834824 172.415848,139.938263 173.053314,141.238281 
	C173.012024,141.434845 172.851517,141.803101 172.486832,141.834381 
	C171.391953,141.918320 170.661758,141.970963 169.931564,142.023621 
	C169.765091,141.975708 169.598618,141.927795 169.188705,141.783691 
	C166.958344,133.741943 165.221985,125.719925 162.835281,117.896309 
	C162.097626,115.478218 159.589447,113.600250 157.756561,111.117813 
	C157.882004,110.508186 158.142807,110.255722 158.676590,109.933823 
z"/>
<path fill="#613716" opacity="1.000000" stroke="none" 
	d="
M184.996292,78.192108 
	C185.093155,77.966469 185.214920,77.755188 185.360992,77.374680 
	C186.425079,75.243950 187.489761,73.296791 187.935928,72.480820 
	C190.872742,73.678818 193.674591,74.821754 196.715515,76.366196 
	C193.896500,78.049225 196.507401,81.145988 194.710648,82.863235 
	C193.972137,82.496712 193.507828,82.186157 192.965942,81.535370 
	C190.925186,80.804115 188.962006,80.413094 186.732300,79.934525 
	C185.975967,79.295341 185.486130,78.743721 184.996292,78.192108 
z"/>
<path fill="#F2D896" opacity="1.000000" stroke="none" 
	d="
M216.158020,126.052498 
	C216.113037,126.488533 216.068069,126.924561 215.758652,127.867950 
	C215.656143,129.246948 215.818085,130.118576 215.980026,130.990219 
	C216.003891,131.183289 216.027740,131.376343 215.805756,131.850952 
	C215.455948,132.771729 215.351959,133.410919 215.247971,134.050125 
	C214.039795,134.759796 212.831635,135.469482 211.285172,135.708710 
	C210.968948,132.901276 210.991028,130.564316 210.717285,128.153229 
	C210.033600,127.957260 209.645706,127.835426 209.259491,127.360199 
	C209.575317,125.382462 209.889496,123.758125 210.439972,122.003052 
	C211.105438,121.583244 211.534622,121.294167 212.149368,121.299141 
	C213.890137,122.040291 215.445312,122.487381 216.870636,123.239647 
	C216.546539,124.380714 216.352280,125.216606 216.158020,126.052498 
z"/>
<path fill="#C8793E" opacity="1.000000" stroke="none" 
	d="
M194.984848,82.919197 
	C196.507401,81.145988 193.896500,78.049225 196.946182,76.442352 
	C197.671143,75.575676 198.404495,75.034348 198.240463,75.155426 
	C200.400589,77.159027 202.349899,78.967094 204.757019,81.244278 
	C205.355286,82.883011 205.495712,84.052620 205.286774,85.159157 
	C202.216660,83.987671 199.515015,80.761101 196.443237,84.958664 
	C195.755341,84.236450 195.370087,83.577827 194.984848,82.919197 
z"/>
<path fill="#DC955A" opacity="1.000000" stroke="none" 
	d="
M217.000504,122.934479 
	C215.445312,122.487381 213.890137,122.040291 212.315186,120.983070 
	C212.602310,119.264626 212.909195,118.156311 213.586777,117.042206 
	C216.024139,115.954124 218.090820,114.871819 220.157486,113.789520 
	C220.365433,113.827400 220.573395,113.865288 221.095703,113.952805 
	C221.194092,115.702896 220.978134,117.403374 220.556458,119.728577 
	C220.217056,120.888809 220.083389,121.424309 219.949738,121.959816 
	C219.949738,121.959816 219.990204,122.004936 219.740173,122.072105 
	C219.260086,122.384140 219.030060,122.629005 218.800034,122.873871 
	C218.800034,122.873871 218.388611,122.896957 217.945862,122.903770 
	C217.335571,122.918549 217.168030,122.926514 217.000504,122.934479 
z"/>
<path fill="#F1E5D8" opacity="1.000000" stroke="none" 
	d="
M192.007034,146.124527 
	C188.666473,149.575943 184.923508,148.076233 181.317322,146.466492 
	C181.601135,145.629395 181.782715,145.327469 182.264786,145.010300 
	C182.765442,144.981339 182.965607,144.967621 183.539093,144.889038 
	C184.216705,142.867325 184.520996,140.910477 184.937347,138.779617 
	C185.049393,138.605621 185.141266,138.202042 185.334442,138.198425 
	C185.527603,138.194809 185.912369,138.158142 185.972687,138.358826 
	C186.032990,138.559525 186.234848,138.926819 186.178162,139.335449 
	C186.745529,141.455246 187.369553,143.166397 188.298553,144.895065 
	C189.010117,144.912445 189.416702,144.912323 189.959229,145.225815 
	C190.732452,145.734451 191.369736,145.929489 192.007034,146.124527 
z"/>
<path fill="#F4EDE4" opacity="1.000000" stroke="none" 
	d="
M205.636154,85.222237 
	C205.495712,84.052620 205.355286,82.883011 205.090363,81.367004 
	C207.948700,82.432289 210.931534,83.843971 213.982254,85.600571 
	C213.526657,86.225777 213.003159,86.506050 211.923920,86.749512 
	C209.037491,84.046745 208.109528,86.050789 206.910873,87.771477 
	C206.321060,86.784561 205.978607,86.003395 205.636154,85.222237 
z"/>
<path fill="#9C8A7C" opacity="1.000000" stroke="none" 
	d="
M199.298431,145.356812 
	C198.726074,145.607437 198.153702,145.858078 197.082458,145.710052 
	C195.340271,145.187241 194.096970,145.063095 192.878479,144.663025 
	C192.870331,144.020111 192.837326,143.653091 193.082092,143.220032 
	C193.730484,143.081421 194.101105,143.008865 194.699738,143.149612 
	C195.039322,142.285995 195.150909,141.209106 195.196228,139.893219 
	C195.129944,139.654251 195.072830,139.161545 195.339935,139.124481 
	C195.784225,139.057175 195.961441,139.026962 196.398132,138.986954 
	C197.002655,138.962463 197.347733,138.947754 197.784027,139.337036 
	C197.926392,141.123306 197.977524,142.505569 198.159546,144.192200 
	C198.626434,144.783310 198.962433,145.070053 199.298431,145.356812 
z"/>
<path fill="#A65519" opacity="1.000000" stroke="none" 
	d="
M211.013092,128.227341 
	C210.991028,130.564316 210.968948,132.901276 211.015121,135.630066 
	C210.852890,136.559952 210.622437,137.097992 209.942078,137.829620 
	C209.492188,138.023209 209.006775,138.024902 208.970581,137.613083 
	C209.627274,134.209946 210.320175,131.218643 211.013092,128.227341 
z"/>
<path fill="#7A5637" opacity="1.000000" stroke="none" 
	d="
M208.804108,141.008255 
	C206.594788,142.276428 204.385483,143.544586 201.642853,144.524780 
	C200.989151,144.050629 200.868744,143.864441 200.853088,143.479584 
	C201.133026,143.029587 201.354523,142.829590 202.019928,142.760651 
	C203.118362,142.543793 203.819199,142.247223 204.555008,141.928680 
	C204.589966,141.906708 204.672531,141.905472 205.029236,141.885406 
	C206.525330,141.579651 207.664719,141.293945 208.804108,141.008255 
z"/>
<path fill="#613716" opacity="1.000000" stroke="none" 
	d="
M181.964294,145.025558 
	C181.782715,145.327469 181.601135,145.629395 181.200073,146.098618 
	C180.234604,146.221146 179.488663,146.176392 178.127304,146.072250 
	C177.342148,146.053329 177.172379,146.093796 177.002625,146.134262 
	C175.723267,145.666489 174.443893,145.198700 173.196747,144.274780 
	C173.228973,143.818649 173.472229,143.433365 173.671204,143.567017 
	C173.870163,143.700653 174.311554,143.892838 174.311554,143.892838 
	C174.311554,143.892838 174.792572,143.872391 175.154114,143.856354 
	C175.756912,143.838837 175.998184,143.837341 176.368973,143.896820 
	C176.498505,143.957809 176.768875,143.863449 177.110123,143.927399 
	C177.900162,144.107727 178.348953,144.224091 178.946808,144.474121 
	C179.408249,144.470917 179.720612,144.334045 180.302078,144.133484 
	C180.748703,144.020126 180.926254,143.970474 181.179199,144.150421 
	C181.432877,144.659271 181.669449,144.874435 181.964294,145.025558 
z"/>
<path fill="#9C8A7C" opacity="1.000000" stroke="none" 
	d="
M209.041595,140.784042 
	C207.664719,141.293945 206.525330,141.579651 205.212280,141.625549 
	C205.657745,140.566574 206.276871,139.747391 207.187531,138.940979 
	C207.673111,138.939865 207.867172,138.925980 208.296265,138.857727 
	C208.812149,138.606186 208.977066,138.337769 209.012512,137.997925 
	C208.998962,137.997757 209.006775,138.024902 209.006775,138.024902 
	C209.006775,138.024902 209.492188,138.023209 209.734009,138.038544 
	C209.743576,138.889191 209.511337,139.724503 209.041595,140.784042 
z"/>
<path fill="#613716" opacity="1.000000" stroke="none" 
	d="
M192.853653,144.938950 
	C194.096970,145.063095 195.340271,145.187241 196.768082,145.636261 
	C195.579453,145.994019 194.206314,146.026871 192.420105,146.092133 
	C191.369736,145.929489 190.732452,145.734451 190.334198,145.118332 
	C191.333389,144.777817 192.093521,144.858383 192.853653,144.938950 
z"/>
<path fill="#7C5839" opacity="1.000000" stroke="none" 
	d="
M170.015701,142.352295 
	C170.661758,141.970963 171.391953,141.918320 172.664093,142.077713 
	C173.294769,142.670959 173.383499,143.052170 173.472229,143.433365 
	C173.472229,143.433365 173.228973,143.818649 173.052429,143.962646 
	C171.950531,143.631424 171.025192,143.156204 170.015701,142.352295 
z"/>
<path fill="#F1E5D8" opacity="1.000000" stroke="none" 
	d="
M216.225891,130.807571 
	C215.818085,130.118576 215.656143,129.246948 215.743698,128.196442 
	C216.152710,128.886688 216.312241,129.755798 216.225891,130.807571 
z"/>
<path fill="#F3E1A4" opacity="1.000000" stroke="none" 
	d="
M161.688110,101.164368 
	C161.673492,102.123894 161.364502,103.219681 161.007507,104.657562 
	C161.104233,103.766647 161.248993,102.533638 161.688110,101.164368 
z"/>
<path fill="#F1E5D8" opacity="1.000000" stroke="none" 
	d="
M216.870636,123.239647 
	C217.168030,122.926514 217.335571,122.918549 217.748825,122.964005 
	C217.595779,123.977928 217.197006,124.938431 216.478119,125.975716 
	C216.352280,125.216606 216.546539,124.380714 216.870636,123.239647 
z"/>
<path fill="#F1E5D8" opacity="1.000000" stroke="none" 
	d="
M220.253052,121.935127 
	C220.083389,121.424309 220.217056,120.888809 220.546906,120.157166 
	C220.680847,120.610825 220.618607,121.260628 220.253052,121.935127 
z"/>
<path fill="#F1E5D8" opacity="1.000000" stroke="none" 
	d="
M215.456863,133.875061 
	C215.351959,133.410919 215.455948,132.771729 215.828186,132.141876 
	C215.952881,132.667496 215.809311,133.183746 215.456863,133.875061 
z"/>
<path fill="#7C5839" opacity="1.000000" stroke="none" 
	d="
M199.570160,145.330261 
	C198.962433,145.070053 198.626434,144.783310 198.400284,144.135315 
	C198.510132,143.774078 198.938873,143.526382 199.239929,143.434097 
	C199.943436,143.453964 200.345886,143.566116 200.748322,143.678268 
	C200.868744,143.864441 200.989151,144.050629 201.251312,144.538666 
	C200.876007,144.994919 200.358963,145.149323 199.570160,145.330261 
z"/>
<path fill="#F1E5D8" opacity="1.000000" stroke="none" 
	d="
M219.068909,122.834244 
	C219.030060,122.629005 219.260086,122.384140 219.727417,122.045372 
	C219.755722,122.232521 219.546768,122.513580 219.068909,122.834244 
z"/>
<path fill="#F1E5D8" opacity="1.000000" stroke="none" 
	d="
M177.082565,146.294174 
	C177.172379,146.093796 177.342148,146.053329 177.755463,146.108521 
	C177.720169,146.287476 177.441345,146.370789 177.082565,146.294174 
z"/>
<path fill="#FEFEFD" opacity="1.000000" stroke="none" 
	d="
M379.598633,101.744011 
	C379.405304,101.776566 379.335815,101.679474 379.266296,101.582375 
	C379.418365,101.593040 379.570404,101.603699 379.598633,101.744011 
z"/>
<path fill="#FAF7F5" opacity="1.000000" stroke="none" 
	d="
M310.281982,95.463348 
	C314.064941,89.002441 317.426453,82.707008 321.560974,76.968536 
	C322.747253,75.322067 326.456909,74.274170 328.465118,74.850166 
	C329.904388,75.262985 331.239197,78.836029 331.240570,81.000015 
	C331.247833,92.638733 327.132416,102.904182 319.150116,111.316574 
	C317.377991,113.184166 313.388580,114.893250 311.465942,114.109558 
	C309.649139,113.369003 308.430908,109.276253 308.352509,106.616592 
	C308.247253,103.045380 309.490204,99.434425 310.281982,95.463348 
z"/>
<path fill="#F7F3EF" opacity="1.000000" stroke="none" 
	d="
M459.224030,86.340652 
	C461.603271,83.150314 463.426788,79.822670 466.150177,77.595222 
	C467.830811,76.220657 470.882721,76.522728 473.319000,76.072083 
	C473.667694,78.539711 474.807404,81.217422 474.218170,83.435974 
	C472.378387,90.363274 463.388428,96.508636 454.952148,96.746696 
	C456.388916,93.211403 457.718567,89.939621 459.224030,86.340652 
z"/>
<path fill="#F7F3EF" opacity="1.000000" stroke="none" 
	d="
M116.598251,94.823479 
	C113.827927,95.792152 111.395668,96.592377 107.685379,97.813080 
	C110.457436,89.290947 113.038780,82.223534 119.290894,77.418060 
	C120.962494,76.133247 123.791199,76.353874 126.088684,75.883362 
	C126.534103,78.326065 128.187393,81.577805 127.195908,83.058075 
	C124.349457,87.307793 120.432518,90.840508 116.598251,94.823479 
z"/>
<path fill="#A65519" opacity="1.000000" stroke="none" 
	d="
M184.686890,78.311783 
	C185.486130,78.743721 185.975967,79.295341 186.822556,80.176102 
	C186.456924,81.332863 185.734543,82.160484 185.006409,82.993698 
	C185.000656,82.999290 184.992218,83.011192 184.758392,83.202042 
	C185.549728,84.694313 186.574890,85.995735 187.312668,86.932320 
	C185.384155,88.032051 183.645538,89.023491 181.591599,89.968536 
	C180.842590,89.254082 180.408905,88.586029 179.997986,87.555344 
	C179.652145,86.377327 179.283524,85.561935 178.926819,84.600754 
	C178.938751,84.454964 178.926743,84.162460 178.926758,84.162460 
	C180.743652,82.252136 182.560562,80.341805 184.686890,78.311783 
z"/>
<path fill="#AE622B" opacity="1.000000" stroke="none" 
	d="
M177.046509,103.681122 
	C174.455750,102.052849 171.865005,100.424568 169.316681,98.490372 
	C169.622437,97.969078 169.885757,97.753716 170.423508,97.449112 
	C171.470825,97.269279 172.243729,97.178680 173.284302,96.986847 
	C173.998779,96.541245 174.445602,96.196869 175.179871,95.926880 
	C177.596924,97.588295 172.111252,101.154503 177.009857,102.293762 
	C177.008224,102.941063 177.027359,103.311096 177.046509,103.681122 
z"/>
<path fill="#F2D896" opacity="1.000000" stroke="none" 
	d="
M178.914886,84.746552 
	C179.283524,85.561935 179.652145,86.377327 179.664307,87.578804 
	C178.864883,88.011879 178.421906,88.058876 177.716324,88.139740 
	C177.200439,88.414619 176.947159,88.655617 176.431793,88.918442 
	C175.750778,89.227882 175.331894,89.515495 174.688248,89.930656 
	C174.286087,90.347649 174.108673,90.637085 173.611023,90.961494 
	C172.469528,91.617912 171.648270,92.239357 170.493652,92.877884 
	C169.939957,92.925949 169.719589,92.956940 169.499222,92.987923 
	C170.220612,91.948906 170.942017,90.909882 172.034073,89.682800 
	C172.608459,89.350983 172.704407,89.154495 172.970627,88.725403 
	C173.681030,88.047401 174.113373,87.549278 174.811920,86.968437 
	C175.143509,86.779350 175.278366,86.658928 175.260269,86.569443 
	C175.218369,86.362267 175.102432,86.170067 175.005707,85.986252 
	C174.994888,86.000710 174.962296,86.016251 175.290222,86.203735 
	C176.717056,85.842995 177.815979,85.294777 178.914886,84.746552 
z"/>
<path fill="#E2833B" opacity="1.000000" stroke="none" 
	d="
M169.542450,93.227631 
	C169.719589,92.956940 169.939957,92.925949 170.754486,92.930145 
	C171.524841,92.971344 171.701019,92.977379 171.935898,93.334778 
	C172.335266,94.820122 172.675949,95.954094 173.016617,97.088074 
	C172.243729,97.178680 171.470825,97.269279 170.492554,97.196899 
	C169.960663,96.860718 169.634155,96.687515 169.428329,96.088142 
	C169.542145,95.091675 169.535309,94.521385 169.528473,93.951096 
	C169.528458,93.951096 169.585693,93.467331 169.542450,93.227631 
z"/>
<path fill="#F2D896" opacity="1.000000" stroke="none" 
	d="
M174.307922,81.978363 
	C175.003952,81.987434 175.699982,81.996498 176.728027,82.361748 
	C176.360809,83.817368 175.661560,84.916809 174.962296,86.016251 
	C174.962296,86.016251 174.994888,86.000710 174.633652,85.943741 
	C173.849838,84.911674 173.427261,83.936569 173.004669,82.961472 
	C173.004669,82.961472 173.004959,83.003075 173.306564,83.006111 
	C173.841415,82.665550 174.074661,82.321953 174.307922,81.978363 
z"/>
<path fill="#7C5839" opacity="1.000000" stroke="none" 
	d="
M172.658112,82.860771 
	C173.427261,83.936569 173.849838,84.911674 174.644470,85.929291 
	C175.102432,86.170067 175.218369,86.362267 175.260269,86.569443 
	C175.278366,86.658928 175.143509,86.779350 174.363892,86.972580 
	C173.055267,87.048592 172.460861,87.037743 171.866470,87.026894 
	C172.014832,85.604622 172.163193,84.182343 172.658112,82.860771 
z"/>
<path fill="#7C5839" opacity="1.000000" stroke="none" 
	d="
M175.290222,86.203735 
	C175.661560,84.916809 176.360809,83.817368 177.076538,82.382401 
	C177.564392,82.621338 178.035797,83.195808 178.716965,83.966370 
	C178.926743,84.162460 178.938751,84.454964 178.926819,84.600754 
	C177.815979,85.294777 176.717056,85.842995 175.290222,86.203735 
z"/>
<path fill="#F2D896" opacity="1.000000" stroke="none" 
	d="
M169.231415,93.971420 
	C169.535309,94.521385 169.542145,95.091675 169.303116,95.837128 
	C168.508438,95.614639 167.959625,95.216988 167.410828,94.819336 
	C167.918671,94.543472 168.426514,94.267616 169.231415,93.971420 
z"/>
<path fill="#613716" opacity="1.000000" stroke="none" 
	d="
M171.850037,87.360619 
	C172.460861,87.037743 173.055267,87.048592 174.097687,87.055298 
	C174.113373,87.549278 173.681030,88.047401 172.862335,88.704498 
	C172.475983,88.863480 172.263123,88.923248 172.263123,88.923248 
	C172.119949,88.513611 171.976776,88.103981 171.850037,87.360619 
z"/>
<path fill="#7C5839" opacity="1.000000" stroke="none" 
	d="
M174.071899,81.784492 
	C174.074661,82.321953 173.841415,82.665550 173.286087,83.009735 
	C173.254623,82.537086 173.545242,82.063850 174.071899,81.784492 
z"/>
<path fill="#7C5839" opacity="1.000000" stroke="none" 
	d="
M172.242325,89.143478 
	C172.263123,88.923248 172.475983,88.863480 172.584274,88.884384 
	C172.704407,89.154495 172.608459,89.350983 172.339355,89.648880 
	C172.273972,89.803024 172.221527,89.363716 172.242325,89.143478 
z"/>
<path fill="#E88138" opacity="1.000000" stroke="none" 
	d="
M220.135529,113.378845 
	C218.090820,114.871819 216.024139,115.954124 213.351410,116.759705 
	C211.321732,115.742493 209.935638,114.458466 208.467941,114.357239 
	C202.657089,113.956490 196.820694,113.926025 190.993774,113.758286 
	C189.589111,111.557495 188.184448,109.356705 187.135056,106.678978 
	C190.782562,105.286148 194.026917,104.022362 197.381668,103.560715 
	C200.239563,103.167427 203.224503,103.697258 206.153229,103.818703 
	C210.862930,104.395706 215.572632,104.972710 220.113571,105.529037 
	C220.113571,108.481659 220.113571,110.724915 220.135529,113.378845 
z"/>
<path fill="#8E440D" opacity="1.000000" stroke="none" 
	d="
M206.186584,103.478699 
	C203.224503,103.697258 200.239563,103.167427 197.381668,103.560715 
	C194.026917,104.022362 190.782562,105.286148 187.117828,106.344391 
	C185.667831,106.113480 184.590347,105.740219 183.258575,104.797173 
	C182.000687,103.956619 180.997086,103.685852 179.993484,103.415085 
	C179.259033,103.493362 178.524567,103.571640 177.418304,103.665520 
	C177.027359,103.311096 177.008224,102.941063 177.365814,102.232086 
	C180.955887,100.546593 183.022812,98.777748 181.503021,94.738953 
	C181.000671,93.403969 181.736969,91.602898 181.906937,90.014938 
	C183.645538,89.023491 185.384155,88.032051 187.312668,86.932320 
	C186.574890,85.995735 185.549728,84.694313 184.881134,83.410889 
	C185.597397,83.410248 185.957123,83.391624 186.316849,83.373009 
	C185.881943,83.244705 185.447052,83.116402 185.012146,82.988098 
	C185.734543,82.160484 186.456924,81.332863 187.089050,80.263664 
	C188.962006,80.413094 190.925186,80.804115 192.664795,81.748413 
	C193.282974,88.098457 196.410889,93.688156 193.969986,99.826035 
	C193.821716,100.198853 195.383194,101.872383 195.959366,101.778320 
	C197.032654,101.603096 198.616699,100.727745 198.823944,99.864349 
	C199.270752,98.002876 198.980209,95.964409 199.252213,93.997154 
	C199.856750,93.982681 200.200485,93.969414 200.675949,94.366341 
	C201.128693,97.099777 201.449677,99.423027 201.829941,102.175232 
	C203.926056,101.194107 205.342758,100.530983 206.759491,99.867874 
	C206.579636,100.958153 206.399780,102.048424 206.186584,103.478699 
M190.494965,85.633041 
	C188.381622,90.028259 186.017548,94.329468 184.312225,98.877670 
	C183.819534,100.191673 185.219833,102.215431 185.752304,103.913803 
	C187.408096,103.054207 189.909546,102.607826 190.567749,101.260788 
	C192.937958,96.410034 193.859833,91.239616 190.494965,85.633041 
z"/>
<path fill="#813D0C" opacity="1.000000" stroke="none" 
	d="
M190.672333,113.914474 
	C196.820694,113.926025 202.657089,113.956490 208.467941,114.357239 
	C209.935638,114.458466 211.321732,115.742493 212.980713,116.765488 
	C212.909195,118.156311 212.602310,119.264626 212.129608,120.689018 
	C211.534622,121.294167 211.105438,121.583244 210.143112,121.769379 
	C208.030472,120.777138 206.450958,119.887833 204.837769,118.702332 
	C203.828262,118.583572 202.852448,118.761017 201.649033,119.059677 
	C200.973801,119.430916 200.526154,119.680939 200.061249,119.627640 
	C199.885101,118.860588 199.726181,118.396866 199.252823,117.015518 
	C199.038742,119.010803 198.934799,119.979759 198.628174,120.967651 
	C198.425522,120.986595 198.019821,121.019783 198.011230,121.011185 
	C198.002625,121.002586 197.983566,120.989639 197.992188,120.607162 
	C197.878296,118.942139 197.755783,117.659592 197.508743,115.073318 
	C196.280701,117.188972 195.765640,118.076302 195.172318,118.634254 
	C194.780502,117.675858 194.466934,117.046829 194.153381,116.417809 
	C193.741928,116.932175 193.330475,117.446541 192.647736,117.971710 
	C192.014877,117.970406 191.653320,117.958313 191.186310,117.660645 
	C190.276566,117.250854 189.472260,117.126633 188.667953,117.002411 
	C189.228928,116.025154 189.789902,115.047905 190.672333,113.914474 
z"/>
<path fill="#A65213" opacity="1.000000" stroke="none" 
	d="
M179.982666,115.949265 
	C180.215515,115.362373 180.448349,114.775490 180.921585,113.965317 
	C181.728378,114.598061 182.294769,115.454079 182.818832,116.956833 
	C182.521347,122.723816 182.266190,127.844063 182.101379,133.224335 
	C181.810486,134.328674 181.429230,135.172974 180.873138,135.633713 
	C180.459763,128.816528 180.221222,122.382896 179.982666,115.949265 
z"/>
<path fill="#994B11" opacity="1.000000" stroke="none" 
	d="
M181.047974,136.017273 
	C181.429230,135.172974 181.810486,134.328674 182.404175,132.988098 
	C183.059067,127.341194 183.501526,122.190582 183.943985,117.039970 
	C184.135544,117.017120 184.327103,116.994278 184.826660,117.206375 
	C185.194336,117.677505 185.328186,117.859016 185.536194,117.985847 
	C185.536194,117.985847 185.726852,118.104813 185.694992,118.370773 
	C185.630112,119.941154 185.597092,121.245567 185.414734,123.005440 
	C185.220779,125.643387 185.176132,127.825882 185.086060,130.458206 
	C185.074173,133.339371 185.107712,135.770706 185.141266,138.202042 
	C185.141266,138.202042 185.049393,138.605621 184.607727,138.790222 
	C183.728760,139.028122 183.291458,139.081406 182.571457,139.091309 
	C181.909882,139.088638 181.530991,139.129333 181.122589,138.776184 
	C181.078049,137.593964 181.063019,136.805618 181.047974,136.017273 
z"/>
<path fill="#C8793E" opacity="1.000000" stroke="none" 
	d="
M183.769623,116.958153 
	C183.501526,122.190582 183.059067,127.341194 182.313812,132.728058 
	C182.266190,127.844063 182.521347,122.723816 182.993805,117.225868 
	C183.211121,116.848167 183.595276,116.876335 183.769623,116.958153 
z"/>
<path fill="#CB8549" opacity="1.000000" stroke="none" 
	d="
M188.379425,116.992226 
	C189.472260,117.126633 190.276566,117.250854 191.083801,117.713989 
	C191.086746,118.052895 190.861664,118.099701 190.539764,118.251282 
	C189.653641,119.960785 189.089401,121.518723 188.276306,123.068222 
	C187.699020,123.001869 187.368576,122.985947 187.015594,122.594589 
	C186.929276,120.788559 186.863480,119.399963 186.797684,118.011375 
	C187.228745,117.668259 187.659821,117.325142 188.379425,116.992226 
z"/>
<path fill="#AE622B" opacity="1.000000" stroke="none" 
	d="
M180.169876,103.740433 
	C180.997086,103.685852 182.000687,103.956619 183.036896,104.537277 
	C182.161774,104.586700 181.254013,104.326241 180.169876,103.740433 
z"/>
<path fill="#F3E1A4" opacity="1.000000" stroke="none" 
	d="
M186.583374,118.016815 
	C186.863480,119.399963 186.929276,120.788559 186.999100,122.615761 
	C187.003113,123.054375 187.036423,123.096153 186.769104,123.079079 
	C186.189209,122.891335 185.876648,122.720657 185.564072,122.549988 
	C185.597092,121.245567 185.630112,119.941154 185.801788,118.335846 
	C185.940460,118.034958 186.369049,118.022263 186.583374,118.016815 
z"/>
<path fill="#C8793E" opacity="1.000000" stroke="none" 
	d="
M185.642166,117.784843 
	C185.328186,117.859016 185.194336,117.677505 185.108765,117.270859 
	C185.455490,117.054390 185.677246,117.215538 185.642166,117.784843 
z"/>
<path fill="#E2833B" opacity="1.000000" stroke="none" 
	d="
M206.862717,99.561005 
	C205.342758,100.530983 203.926056,101.194107 201.829941,102.175232 
	C201.449677,99.423027 201.128693,97.099777 200.967590,94.128639 
	C203.226318,92.327034 205.325150,91.173325 207.619766,89.967705 
	C207.815536,89.915794 208.218491,89.957008 208.201202,90.289062 
	C208.625259,91.015854 209.066635,91.410599 209.399002,92.229172 
	C209.238647,94.095154 209.187302,95.537308 209.135956,96.979462 
	C208.412613,97.737686 207.689285,98.495918 206.862717,99.561005 
z"/>
<path fill="#FEFEFD" opacity="1.000000" stroke="none" 
	d="
M208.218491,89.957008 
	C208.218491,89.957008 207.815536,89.915794 207.525146,89.634773 
	C207.209259,88.894913 207.183746,88.436066 207.158249,87.977226 
	C208.109528,86.050789 209.037491,84.046745 211.648834,86.859467 
	C212.333893,87.729202 212.677124,88.495377 213.152512,89.168167 
	C216.538071,93.959412 215.703888,95.989418 209.530838,96.963257 
	C209.187302,95.537308 209.238647,94.095154 209.539719,92.034508 
	C209.265793,90.929680 208.742142,90.443344 208.218491,89.957008 
z"/>
<path fill="#FEFEFD" opacity="1.000000" stroke="none" 
	d="
M219.208588,102.983025 
	C215.937820,102.890083 212.813766,102.502068 209.689728,102.114059 
	C213.354416,98.768959 216.580032,98.824371 219.208588,102.983025 
z"/>
<path fill="#AE622B" opacity="1.000000" stroke="none" 
	d="
M180.873154,135.633713 
	C181.063019,136.805618 181.078049,137.593964 181.199310,138.795074 
	C181.305527,139.207855 181.308838,139.365829 181.029205,139.356598 
	C180.447586,139.558990 180.145584,139.770615 179.558029,139.951859 
	C178.893219,139.959518 178.513962,139.997543 178.079376,139.622726 
	C178.013321,137.821762 178.002563,136.433655 177.981110,134.615479 
	C177.931595,128.207809 177.892776,122.230179 178.147827,116.176453 
	C178.640717,116.063751 178.839752,116.027145 179.038773,115.990547 
	C179.038773,115.990547 179.511124,115.977898 179.746887,115.963577 
	C180.221222,122.382896 180.459763,128.816528 180.873154,135.633713 
z"/>
<path fill="#813D0C" opacity="1.000000" stroke="none" 
	d="
M179.044983,115.618073 
	C178.839752,116.027145 178.640717,116.063751 177.827179,116.096176 
	C176.496521,115.074234 175.780396,114.056465 174.432617,112.141022 
	C174.024307,114.351662 173.881973,115.122246 173.465424,115.911301 
	C172.825241,115.932411 172.459259,115.935051 172.009842,115.610680 
	C170.985870,114.889771 170.045334,114.495872 169.061157,114.059258 
	C169.017487,114.016541 168.930283,113.930992 168.930283,113.930992 
	C173.346115,109.941368 176.219101,110.314545 179.044983,115.618073 
z"/>
<path fill="#813D0C" opacity="1.000000" stroke="none" 
	d="
M166.032440,116.802460 
	C166.028336,116.431206 166.024246,116.059952 166.029648,115.411453 
	C166.797302,114.772530 167.555466,114.410851 168.621948,113.990082 
	C168.930283,113.930992 169.017487,114.016541 169.113556,114.458748 
	C169.233032,116.271126 169.256439,117.641296 168.975693,119.002548 
	C168.469070,118.980980 168.266617,118.968330 167.989655,118.640503 
	C167.287598,117.817696 166.660019,117.310074 166.032440,116.802460 
z"/>
<path fill="#A65519" opacity="1.000000" stroke="none" 
	d="
M172.093292,115.937691 
	C172.459259,115.935051 172.825241,115.932411 173.565826,116.345551 
	C174.305573,121.354561 174.450974,125.981804 175.153549,130.522827 
	C175.403473,132.138107 177.006485,133.544037 177.991821,135.045532 
	C178.002563,136.433655 178.013321,137.821762 178.127289,139.649689 
	C178.230499,140.089508 178.221497,140.199081 177.950531,140.253937 
	C177.409454,140.549438 177.139343,140.790085 176.691910,140.960953 
	C176.514572,140.891190 176.143707,140.993134 175.815964,141.013275 
	C175.269455,141.041534 175.050705,141.049652 174.543823,141.014038 
	C173.868683,140.994110 173.481628,141.017914 173.094589,141.041718 
	C172.415848,139.938263 171.737122,138.834824 171.309601,137.132538 
	C171.738327,129.668381 171.915817,122.803032 172.093292,115.937691 
z"/>
<path fill="#D37B3A" opacity="1.000000" stroke="none" 
	d="
M172.009842,115.610680 
	C171.915817,122.803032 171.738327,129.668381 171.272491,136.807297 
	C169.178604,130.501556 167.373062,123.922226 165.799988,117.072678 
	C166.660019,117.310074 167.287598,117.817696 167.979828,119.048309 
	C168.872284,123.393089 169.700104,127.014885 170.527924,130.636673 
	C171.128418,130.482437 171.728912,130.328201 172.329422,130.173965 
	C171.312897,126.453133 170.296371,122.732300 169.279846,119.011467 
	C169.256439,117.641296 169.233032,116.271126 169.157227,114.501465 
	C170.045334,114.495872 170.985870,114.889771 172.009842,115.610680 
z"/>
<path fill="#F3E1A4" opacity="1.000000" stroke="none" 
	d="
M173.053314,141.238281 
	C173.481628,141.017914 173.868683,140.994110 174.563538,141.366226 
	C174.845078,142.465561 174.818817,143.168976 174.792572,143.872391 
	C174.792572,143.872391 174.311554,143.892838 174.311554,143.892838 
	C174.311554,143.892838 173.870163,143.700653 173.671204,143.567017 
	C173.383499,143.052170 173.294769,142.670959 173.028778,142.046432 
	C172.851517,141.803101 173.012024,141.434845 173.053314,141.238281 
z"/>
<path fill="#DE7D38" opacity="1.000000" stroke="none" 
	d="
M198.991394,93.998367 
	C198.980209,95.964409 199.270752,98.002876 198.823944,99.864349 
	C198.616699,100.727745 197.032654,101.603096 195.959366,101.778320 
	C195.383194,101.872383 193.821716,100.198853 193.969986,99.826035 
	C196.410889,93.688156 193.282974,88.098457 192.742371,82.088638 
	C193.507828,82.186157 193.972137,82.496712 194.710648,82.863235 
	C195.370087,83.577827 195.755341,84.236450 196.408020,85.279510 
	C197.447433,88.442093 198.219406,91.220230 198.991394,93.998367 
z"/>
<path fill="#A65213" opacity="1.000000" stroke="none" 
	d="
M200.078506,119.930954 
	C200.526154,119.680939 200.973801,119.430916 201.693558,119.526192 
	C201.965683,125.270325 201.965683,130.669159 201.965683,137.488266 
	C203.066971,130.480652 203.969208,124.739586 204.871460,118.998528 
	C206.450958,119.887833 208.030472,120.777138 209.906830,121.900116 
	C209.889496,123.758125 209.575317,125.382462 209.175201,127.776093 
	C208.358154,132.006317 207.627075,135.467270 206.895996,138.928207 
	C206.276871,139.747391 205.657745,140.566574 204.855591,141.645630 
	C204.672531,141.905472 204.589966,141.906708 204.455521,141.579880 
	C203.531448,140.804474 202.741837,140.355911 201.827484,139.707062 
	C201.255615,139.392761 200.808472,139.278732 200.037582,139.104752 
	C199.496109,139.016998 199.278366,138.989212 199.003571,138.771759 
	C198.946518,138.582062 198.909225,138.187668 198.940521,137.783966 
	C199.284546,135.551193 199.597275,133.722137 199.920135,131.442108 
	C199.964706,127.900734 199.999130,124.810333 200.027313,121.554977 
	C200.021057,121.390030 200.006546,121.060204 200.016617,120.777390 
	C200.043961,120.306694 200.061234,120.118828 200.078506,119.930954 
M207.572540,126.574898 
	C207.581497,125.849640 207.616196,125.122406 207.561050,124.402061 
	C207.555328,124.327133 207.016891,124.292969 206.725616,124.239883 
	C206.631561,125.105110 206.537506,125.970329 205.729523,127.278130 
	C205.093033,130.855896 204.456543,134.433670 203.820068,138.011429 
	C204.272568,138.088089 204.725082,138.164764 205.177597,138.241425 
	C205.775345,134.459930 206.373093,130.678436 207.572540,126.574898 
z"/>
<path fill="#C8793E" opacity="1.000000" stroke="none" 
	d="
M207.187531,138.940979 
	C207.627075,135.467270 208.358154,132.006317 209.173523,128.129486 
	C209.645706,127.835426 210.033600,127.957260 210.717285,128.153229 
	C210.320175,131.218643 209.627274,134.209946 208.970581,137.613083 
	C209.006775,138.024902 208.998962,137.997757 208.780243,138.059036 
	C208.281448,138.312637 208.114685,138.576569 208.061218,138.912109 
	C207.867172,138.925980 207.673111,138.939865 207.187531,138.940979 
z"/>
<path fill="#813D0C" opacity="1.000000" stroke="none" 
	d="
M199.252197,93.997154 
	C198.219406,91.220230 197.447433,88.442093 196.710663,85.343102 
	C199.515015,80.761101 202.216660,83.987671 205.286774,85.159157 
	C205.978607,86.003395 206.321060,86.784561 206.910873,87.771477 
	C207.183746,88.436066 207.209259,88.894913 207.329376,89.686684 
	C205.325150,91.173325 203.226318,92.327034 200.835846,93.718452 
	C200.200485,93.969414 199.856750,93.982681 199.252197,93.997154 
z"/>
<path fill="#994B11" opacity="1.000000" stroke="none" 
	d="
M187.019608,123.033203 
	C187.368576,122.985947 187.699020,123.001869 188.352356,123.376236 
	C188.822281,124.086662 188.967285,124.480652 188.914886,125.253372 
	C188.490997,130.056900 188.264542,134.481720 188.037491,138.930176 
	C188.036911,138.953812 188.013611,138.994980 187.716553,138.980957 
	C187.024628,138.953552 186.629730,138.940186 186.234848,138.926819 
	C186.234848,138.926819 186.032990,138.559525 186.024353,137.904297 
	C186.020477,134.831558 186.025208,132.414032 186.295990,129.718277 
	C186.720154,127.325417 186.878281,125.210785 187.036423,123.096153 
	C187.036423,123.096153 187.003113,123.054375 187.019608,123.033203 
z"/>
<path fill="#F3E1A4" opacity="1.000000" stroke="none" 
	d="
M192.878479,144.663025 
	C192.093521,144.858383 191.333389,144.777817 190.198273,144.804733 
	C189.416702,144.912323 189.010117,144.912445 188.325195,144.479706 
	C188.035767,142.362885 188.024689,140.678925 188.013611,138.994980 
	C188.013611,138.994980 188.036911,138.953812 188.344574,138.940002 
	C189.061096,138.958710 189.469955,138.991241 189.937805,139.399017 
	C190.375793,140.864670 190.754761,141.955048 191.403168,143.096451 
	C192.036926,143.142151 192.401230,143.136826 192.769562,143.171585 
	C192.773575,143.211655 192.804337,143.286087 192.804337,143.286087 
	C192.837326,143.653091 192.870331,144.020111 192.878479,144.663025 
z"/>
<path fill="#FAF7F5" opacity="1.000000" stroke="none" 
	d="
M181.228821,139.188950 
	C181.530991,139.129333 181.909882,139.088638 182.597900,139.506470 
	C182.993301,141.627975 183.079544,143.290939 183.165787,144.953888 
	C182.965607,144.967621 182.765442,144.981339 182.264786,145.010300 
	C181.669449,144.874435 181.432877,144.659271 181.296982,143.782959 
	C181.329178,141.912537 181.319000,140.639175 181.308838,139.365829 
	C181.308838,139.365829 181.305527,139.207855 181.228821,139.188950 
z"/>
<path fill="#9C8A7C" opacity="1.000000" stroke="none" 
	d="
M183.539093,144.889038 
	C183.079544,143.290939 182.993301,141.627975 182.880615,139.549866 
	C183.291458,139.081406 183.728760,139.028122 184.495667,138.964233 
	C184.520996,140.910477 184.216705,142.867325 183.539093,144.889038 
z"/>
<path fill="#9C8A7C" opacity="1.000000" stroke="none" 
	d="
M187.716553,138.980957 
	C188.024689,140.678925 188.035767,142.362885 188.020218,144.462189 
	C187.369553,143.166397 186.745529,141.455246 186.178162,139.335449 
	C186.629730,138.940186 187.024628,138.953552 187.716553,138.980957 
z"/>
<path fill="#D37B3A" opacity="1.000000" stroke="none" 
	d="
M186.029953,129.996506 
	C186.025208,132.414032 186.020477,134.831558 185.964050,137.703613 
	C185.912369,138.158142 185.527603,138.194809 185.334442,138.198425 
	C185.107712,135.770706 185.074173,133.339371 185.310120,130.455078 
	C185.579590,130.002121 186.029953,129.996506 186.029953,129.996506 
z"/>
<path fill="#A65519" opacity="1.000000" stroke="none" 
	d="
M200.006546,121.060204 
	C200.006546,121.060204 200.021057,121.390030 199.718811,121.781021 
	C199.049530,123.778419 198.682465,125.384827 198.015869,127.000252 
	C197.517075,127.023407 197.317795,127.037529 197.057068,126.755341 
	C196.783249,126.275620 196.579803,126.079048 196.348953,125.922997 
	C196.314423,125.899651 196.066742,126.059784 196.059982,126.146156 
	C195.721146,130.483856 195.397842,134.822769 195.072845,139.161545 
	C195.072830,139.161545 195.129944,139.654251 195.092255,140.244247 
	C194.860291,141.534943 194.666016,142.235626 194.471741,142.936325 
	C194.101105,143.008865 193.730484,143.081421 193.082092,143.220032 
	C192.804337,143.286087 192.773575,143.211655 192.839050,142.705322 
	C193.686554,134.453857 194.468567,126.708748 195.250580,118.963638 
	C195.765640,118.076302 196.280701,117.188972 197.508743,115.073318 
	C197.755783,117.659592 197.878296,118.942139 197.760468,120.776733 
	C197.489304,121.869431 197.458481,122.410080 197.427673,122.950729 
	C197.575317,122.953072 197.722977,122.955414 197.870636,122.957756 
	C197.920364,122.311768 197.970093,121.665779 198.019836,121.019783 
	C198.019821,121.019783 198.425522,120.986595 198.922089,121.003532 
	C199.614624,121.033714 199.810577,121.046959 200.006546,121.060204 
z"/>
<path fill="#D37B3A" opacity="1.000000" stroke="none" 
	d="
M195.339935,139.124481 
	C195.397842,134.822769 195.721146,130.483856 196.059982,126.146156 
	C196.066742,126.059784 196.314423,125.899651 196.348953,125.922997 
	C196.579803,126.079048 196.783249,126.275620 197.022949,127.200027 
	C196.746414,131.626251 196.442535,135.311493 196.138657,138.996735 
	C195.961441,139.026962 195.784225,139.057175 195.339935,139.124481 
z"/>
<path fill="#8E440D" opacity="1.000000" stroke="none" 
	d="
M196.398132,138.986954 
	C196.442535,135.311493 196.746414,131.626251 197.084412,127.496330 
	C197.317795,127.037529 197.517075,127.023407 197.966736,127.402634 
	C198.233490,129.134308 198.249832,130.472610 198.176239,132.257095 
	C198.069412,134.498077 198.052521,136.292892 197.967789,138.306290 
	C197.899948,138.524872 197.692795,138.933044 197.692795,138.933044 
	C197.347733,138.947754 197.002655,138.962463 196.398132,138.986954 
z"/>
<path fill="#F1E5D8" opacity="1.000000" stroke="none" 
	d="
M197.784027,139.337036 
	C197.692795,138.933044 197.899948,138.524872 198.187042,138.324036 
	C198.474152,138.123184 198.909225,138.187668 198.909225,138.187668 
	C198.909225,138.187668 198.946518,138.582062 198.941284,139.223419 
	C198.945770,141.080719 198.955505,142.296677 198.964813,143.526581 
	C198.964386,143.540527 198.938873,143.526382 198.938873,143.526382 
	C198.938873,143.526382 198.510132,143.774078 198.269394,143.830963 
	C197.977524,142.505569 197.926392,141.123306 197.784027,139.337036 
z"/>
<path fill="#F1E5D8" opacity="1.000000" stroke="none" 
	d="
M194.699738,143.149612 
	C194.666016,142.235626 194.860291,141.534943 195.158539,140.483215 
	C195.150909,141.209106 195.039322,142.285995 194.699738,143.149612 
z"/>
<path fill="#F2D896" opacity="1.000000" stroke="none" 
	d="
M199.239929,143.434097 
	C198.938873,143.526382 198.964386,143.540527 199.302368,143.307953 
	C199.880692,141.771805 200.121017,140.468262 200.361328,139.164703 
	C200.808472,139.278732 201.255615,139.392761 201.795563,140.057709 
	C201.799698,141.299393 201.711029,141.990158 201.622360,142.680908 
	C201.354523,142.829590 201.133026,143.029587 200.853088,143.479584 
	C200.345886,143.566116 199.943436,143.453964 199.239929,143.434097 
z"/>
<path fill="#9C8A7C" opacity="1.000000" stroke="none" 
	d="
M202.019928,142.760651 
	C201.711029,141.990158 201.799698,141.299393 201.920288,140.257996 
	C202.741837,140.355911 203.531448,140.804474 204.420563,141.601837 
	C203.819199,142.247223 203.118362,142.543793 202.019928,142.760651 
z"/>
<path fill="#F2D896" opacity="1.000000" stroke="none" 
	d="
M178.182602,140.062531 
	C178.513962,139.997543 178.893219,139.959518 179.596527,140.373672 
	C179.958054,141.949646 179.995514,143.073425 180.032990,144.197205 
	C179.720612,144.334045 179.408249,144.470917 179.014603,144.117188 
	C178.696045,142.484100 178.458771,141.341583 178.221497,140.199081 
	C178.221497,140.199081 178.230499,140.089508 178.182602,140.062531 
z"/>
<path fill="#9C8A7C" opacity="1.000000" stroke="none" 
	d="
M177.950531,140.253937 
	C178.458771,141.341583 178.696045,142.484100 178.865540,143.983521 
	C178.348953,144.224091 177.900162,144.107727 177.123688,143.573425 
	C176.820419,142.447235 176.844833,141.738968 176.869247,141.030716 
	C177.139343,140.790085 177.409454,140.549438 177.950531,140.253937 
z"/>
<path fill="#9C8A7C" opacity="1.000000" stroke="none" 
	d="
M180.302063,144.133484 
	C179.995514,143.073425 179.958054,141.949646 179.882080,140.404053 
	C180.145584,139.770615 180.447586,139.558990 181.029205,139.356598 
	C181.319000,140.639175 181.329178,141.912537 181.221573,143.553345 
	C180.926254,143.970474 180.748703,144.020126 180.302063,144.133484 
z"/>
<path fill="#9C8A7C" opacity="1.000000" stroke="none" 
	d="
M175.154114,143.856354 
	C174.818817,143.168976 174.845078,142.465561 174.851639,141.409973 
	C175.050705,141.049652 175.269455,141.041534 175.807709,141.369659 
	C176.164612,142.415878 176.202026,143.125870 176.239441,143.835846 
	C175.998184,143.837341 175.756912,143.838837 175.154114,143.856354 
z"/>
<path fill="#F2D896" opacity="1.000000" stroke="none" 
	d="
M176.368958,143.896820 
	C176.202026,143.125870 176.164612,142.415878 176.135452,141.349518 
	C176.143707,140.993134 176.514572,140.891190 176.691910,140.960953 
	C176.844833,141.738968 176.820419,142.447235 176.782440,143.509460 
	C176.768875,143.863449 176.498505,143.957809 176.368958,143.896820 
z"/>
<path fill="#A65519" opacity="1.000000" stroke="none" 
	d="
M208.296265,138.857727 
	C208.114685,138.576569 208.281448,138.312637 208.793793,138.059204 
	C208.977066,138.337769 208.812149,138.606186 208.296265,138.857727 
z"/>
<path fill="#DE7D38" opacity="1.000000" stroke="none" 
	d="
M181.591599,89.968529 
	C181.736969,91.602898 181.000671,93.403969 181.503021,94.738953 
	C183.022812,98.777748 180.955887,100.546593 177.386597,101.954811 
	C172.111252,101.154503 177.596924,97.588295 175.264618,95.577927 
	C175.038696,94.443108 175.015503,93.731613 174.995331,92.619003 
	C174.969879,91.412964 174.941437,90.608032 174.912994,89.803108 
	C175.331894,89.515495 175.750778,89.227882 176.698486,88.880005 
	C177.477859,88.581779 177.728394,88.343819 177.978943,88.105865 
	C178.421906,88.058876 178.864883,88.011879 179.641541,87.941437 
	C180.408905,88.586029 180.842590,89.254082 181.591599,89.968529 
z"/>
<path fill="#F2D896" opacity="1.000000" stroke="none" 
	d="
M174.992310,93.020126 
	C175.015503,93.731613 175.038696,94.443108 174.977142,95.503548 
	C174.445602,96.196869 173.998779,96.541245 173.284302,96.986847 
	C172.675949,95.954094 172.335266,94.820122 172.238739,93.295105 
	C172.683670,92.873749 172.884445,92.843430 173.397919,92.886215 
	C174.137863,92.979591 174.565079,92.999863 174.992310,93.020126 
z"/>
<path fill="#DC955A" opacity="1.000000" stroke="none" 
	d="
M173.085236,92.813110 
	C172.884445,92.843430 172.683670,92.873749 172.180038,92.943741 
	C171.701019,92.977379 171.524841,92.971344 171.087845,92.913063 
	C171.648270,92.239357 172.469528,91.617912 173.555237,91.217682 
	C173.574875,91.896973 173.330048,92.355042 173.085236,92.813110 
z"/>
<path fill="#E2833B" opacity="1.000000" stroke="none" 
	d="
M173.397934,92.886223 
	C173.330048,92.355042 173.574875,91.896973 173.875488,91.182716 
	C174.108673,90.637085 174.286087,90.347649 174.688248,89.930656 
	C174.941437,90.608032 174.969879,91.412964 174.995331,92.619003 
	C174.565079,92.999863 174.137863,92.979591 173.397934,92.886223 
z"/>
<path fill="#E2833B" opacity="1.000000" stroke="none" 
	d="
M177.716324,88.139740 
	C177.728394,88.343819 177.477859,88.581779 176.960602,88.858177 
	C176.947159,88.655617 177.200439,88.414619 177.716324,88.139740 
z"/>
<path fill="#DE7D38" opacity="1.000000" stroke="none" 
	d="
M190.753998,85.869934 
	C193.859833,91.239616 192.937958,96.410034 190.567749,101.260788 
	C189.909546,102.607826 187.408096,103.054207 185.752304,103.913803 
	C185.219833,102.215431 183.819534,100.191673 184.312225,98.877670 
	C186.017548,94.329468 188.381622,90.028259 190.753998,85.869934 
z"/>
<path fill="#A65519" opacity="1.000000" stroke="none" 
	d="
M185.006409,82.993698 
	C185.447052,83.116402 185.881943,83.244705 186.316849,83.373009 
	C185.957123,83.391624 185.597397,83.410248 185.114944,83.220032 
	C184.992218,83.011192 185.000656,82.999290 185.006409,82.993698 
z"/>
<path fill="#CB8549" opacity="1.000000" stroke="none" 
	d="
M195.172318,118.634262 
	C194.468567,126.708748 193.686554,134.453857 192.835022,142.665253 
	C192.401230,143.136826 192.036926,143.142151 191.363434,142.691437 
	C191.004669,141.152802 190.955078,140.070221 190.942261,138.567886 
	C191.020798,136.473129 191.062576,134.798126 191.378479,132.855209 
	C191.772415,131.056290 191.892212,129.525253 192.048569,127.573608 
	C191.997086,125.481133 191.909012,123.809288 191.883850,121.778694 
	C192.270844,120.266930 192.594925,119.113922 192.919006,117.960915 
	C193.330475,117.446541 193.741928,116.932175 194.153381,116.417809 
	C194.466934,117.046829 194.780502,117.675858 195.172318,118.634262 
z"/>
<path fill="#D37B3A" opacity="1.000000" stroke="none" 
	d="
M204.837769,118.702332 
	C203.969208,124.739586 203.066971,130.480652 201.965683,137.488266 
	C201.965683,130.669159 201.965683,125.270325 201.921158,119.404984 
	C202.852448,118.761017 203.828262,118.583572 204.837769,118.702332 
z"/>
<path fill="#7C5839" opacity="1.000000" stroke="none" 
	d="
M192.647720,117.971710 
	C192.594925,119.113922 192.270844,120.266930 191.719971,121.749649 
	C191.493210,122.079353 191.159012,122.080330 191.109344,121.682404 
	C190.993668,120.222893 190.927658,119.161293 190.861664,118.099701 
	C190.861664,118.099701 191.086746,118.052895 191.189255,117.999557 
	C191.653320,117.958313 192.014877,117.970406 192.647720,117.971710 
z"/>
<path fill="#AE622B" opacity="1.000000" stroke="none" 
	d="
M200.016617,120.777390 
	C199.810577,121.046959 199.614624,121.033714 199.124756,120.984589 
	C198.934799,119.979759 199.038742,119.010803 199.252823,117.015518 
	C199.726181,118.396866 199.885101,118.860588 200.061249,119.627632 
	C200.061234,120.118828 200.043961,120.306694 200.016617,120.777390 
z"/>
<path fill="#C8793E" opacity="1.000000" stroke="none" 
	d="
M186.295990,129.718277 
	C186.029953,129.996506 185.579590,130.002121 185.355545,130.005249 
	C185.176132,127.825882 185.220779,125.643387 185.414734,123.005432 
	C185.876648,122.720657 186.189209,122.891335 186.769104,123.079079 
	C186.878281,125.210785 186.720154,127.325417 186.295990,129.718277 
z"/>
<path fill="#F2D896" opacity="1.000000" stroke="none" 
	d="
M190.539764,118.251282 
	C190.927658,119.161293 190.993668,120.222893 191.032166,121.982010 
	C190.959824,123.091255 190.914993,123.502983 190.647720,124.031784 
	C189.987610,124.390793 189.549957,124.632721 189.112305,124.874649 
	C188.967285,124.480652 188.822281,124.086662 188.601212,123.384659 
	C189.089401,121.518723 189.653641,119.960785 190.539764,118.251282 
z"/>
<path fill="#F4EDE4" opacity="1.000000" stroke="none" 
	d="
M208.201202,90.289062 
	C208.742142,90.443344 209.265793,90.929680 209.648727,91.610680 
	C209.066635,91.410599 208.625259,91.015854 208.201202,90.289062 
z"/>
<path fill="#DE7D38" opacity="1.000000" stroke="none" 
	d="
M177.981110,134.615479 
	C177.006485,133.544037 175.403473,132.138107 175.153549,130.522827 
	C174.450974,125.981804 174.305573,121.354561 173.840057,116.327072 
	C173.881973,115.122246 174.024307,114.351662 174.432617,112.141022 
	C175.780396,114.056465 176.496521,115.074234 177.533310,116.172272 
	C177.892776,122.230179 177.931595,128.207809 177.981110,134.615479 
z"/>
<path fill="#A65213" opacity="1.000000" stroke="none" 
	d="
M168.975693,119.002548 
	C170.296371,122.732300 171.312897,126.453133 172.329422,130.173965 
	C171.728912,130.328201 171.128418,130.482437 170.527924,130.636673 
	C169.700104,127.014885 168.872284,123.393089 168.054306,119.363487 
	C168.266617,118.968330 168.469070,118.980980 168.975693,119.002548 
z"/>
<path fill="#D37B3A" opacity="1.000000" stroke="none" 
	d="
M206.970840,126.896927 
	C206.373093,130.678436 205.775345,134.459930 205.177597,138.241425 
	C204.725082,138.164764 204.272568,138.088089 203.820068,138.011429 
	C204.456543,134.433670 205.093033,130.855896 206.222733,127.022789 
	C206.715942,126.767448 206.970840,126.896927 206.970840,126.896927 
z"/>
<path fill="#CB8549" opacity="1.000000" stroke="none" 
	d="
M198.266174,131.810928 
	C198.249832,130.472610 198.233490,129.134308 198.266266,127.393616 
	C198.682465,125.384827 199.049530,123.778419 199.725067,121.945976 
	C199.999130,124.810333 199.964706,127.900734 199.644989,131.469421 
	C198.995178,131.902115 198.630676,131.856522 198.266174,131.810928 
z"/>
<path fill="#AE622B" opacity="1.000000" stroke="none" 
	d="
M198.176239,132.257095 
	C198.630676,131.856522 198.995178,131.902115 199.634842,131.920395 
	C199.597275,133.722137 199.284546,135.551193 198.940521,137.783966 
	C198.909225,138.187668 198.474152,138.123184 198.254883,138.105438 
	C198.052521,136.292892 198.069412,134.498077 198.176239,132.257095 
z"/>
<path fill="#F2D896" opacity="1.000000" stroke="none" 
	d="
M207.271698,126.735916 
	C206.970840,126.896927 206.715942,126.767448 206.579697,126.801498 
	C206.537506,125.970329 206.631561,125.105110 206.725616,124.239883 
	C207.016891,124.292969 207.555328,124.327133 207.561050,124.402061 
	C207.616196,125.122406 207.581497,125.849640 207.271698,126.735916 
z"/>
<path fill="#9C8A7C" opacity="1.000000" stroke="none" 
	d="
M200.037582,139.104752 
	C200.121017,140.468262 199.880692,141.771805 199.302811,143.294006 
	C198.955505,142.296677 198.945770,141.080719 198.998337,139.413101 
	C199.278366,138.989212 199.496109,139.016998 200.037582,139.104752 
z"/>
<path fill="#CB8549" opacity="1.000000" stroke="none" 
	d="
M188.914886,125.253372 
	C189.549957,124.632721 189.987610,124.390793 190.695251,124.432388 
	C190.920944,125.788582 190.876678,126.861259 190.597046,128.208435 
	C190.271332,129.680588 190.180969,130.878235 190.059677,132.504761 
	C190.109802,134.944107 190.190872,136.954590 190.176025,138.995743 
	C190.080139,139.026398 189.878799,139.023773 189.878799,139.023773 
	C189.469955,138.991241 189.061096,138.958710 188.345154,138.916351 
	C188.264542,134.481720 188.490997,130.056900 188.914886,125.253372 
z"/>
<path fill="#7C5839" opacity="1.000000" stroke="none" 
	d="
M190.905487,138.987625 
	C190.955078,140.070221 191.004669,141.152802 191.093994,142.640411 
	C190.754761,141.955048 190.375793,140.864670 189.937805,139.399017 
	C189.878799,139.023773 190.080139,139.026398 190.333984,139.008240 
	C190.587830,138.990097 190.905487,138.987625 190.905487,138.987625 
z"/>
<path fill="#813D0C" opacity="1.000000" stroke="none" 
	d="
M198.011230,121.011185 
	C197.970093,121.665779 197.920364,122.311768 197.870636,122.957756 
	C197.722977,122.955414 197.575317,122.953072 197.427673,122.950729 
	C197.458481,122.410080 197.489304,121.869431 197.751831,121.159210 
	C197.983566,120.989639 198.002625,121.002586 198.011230,121.011185 
z"/>
<path fill="#A65519" opacity="1.000000" stroke="none" 
	d="
M190.090607,132.075897 
	C190.180969,130.878235 190.271332,129.680588 190.892365,128.230530 
	C191.619370,127.983498 191.815689,127.988869 192.011993,127.994232 
	C191.892212,129.525253 191.772415,131.056290 191.265564,132.627777 
	C190.615860,132.470795 190.353241,132.273346 190.090607,132.075897 
z"/>
<path fill="#8E440D" opacity="1.000000" stroke="none" 
	d="
M190.059677,132.504761 
	C190.353241,132.273346 190.615860,132.470795 190.991425,132.895676 
	C191.062576,134.798126 191.020798,136.473129 190.942261,138.567886 
	C190.905487,138.987625 190.587830,138.990097 190.429871,138.977600 
	C190.190872,136.954590 190.109802,134.944107 190.059677,132.504761 
z"/>
<path fill="#8E440D" opacity="1.000000" stroke="none" 
	d="
M192.048584,127.573608 
	C191.815689,127.988869 191.619370,127.983498 191.127716,127.956039 
	C190.876678,126.861259 190.920944,125.788582 190.917694,124.315308 
	C190.914993,123.502983 190.959824,123.091255 191.081833,122.379929 
	C191.159012,122.080330 191.493210,122.079353 191.657074,122.108398 
	C191.909012,123.809288 191.997086,125.481133 192.048584,127.573608 
z"/>
</svg>